# xmcd
#
# Track frame offsets: 
#        150
#        12742
#        43490
#        67870
#        91437
#        109735
#        137605
#        160895
#        172430
#        195592
#
# Disc length: 3137 seconds
#
# Revision: 1
# Processed by: cddbd v1.5.2PL0 Copyright (c) Steve Scherf et al.
# Submitted via: ExactAudioCopyFreeDBPlugin 1.0
#
DISCID=900c3f0a
DTITLE=溝口肇 - Best Wishes
DYEAR=1988
DGENRE=New Age
TTITLE0=Espace
TTITLE1=うたかた (I Already Know The Song)
TTITLE2=神様のチェス (I'll Be Checkmate)
TTITLE3=Thinking Fish
TTITLE4=流れの向こう側 (Beyond The Dreams)
TTITLE5=27th Curve
TTITLE6=4人のテーブルソング (4-Cellos Table Talk)
TTITLE7=Silk Bath
TTITLE8=Circle Line
TTITLE9=帰ろうよ (In The Middle Of The Light)
EXTD=YEAR: 1995
EXTT0=
EXTT1=
EXTT2=
EXTT3=
EXTT4=
EXTT5=
EXTT6=
EXTT7=
EXTT8=
EXTT9=
PLAYORDER=
